<?xml version="1.0" encoding="utf-8"?>
<!-- Generator: Adobe Illustrator 24.1.2, SVG Export Plug-In . SVG Version: 6.00 Build 0)  -->
<svg version="1.1" id="Warstwa_3" xmlns="http://www.w3.org/2000/svg" xmlns:xlink="http://www.w3.org/1999/xlink" x="0px" y="0px"
	 viewBox="0 0 430 430" style="enable-background:new 0 0 430 430;" xml:space="preserve">
<style type="text/css">
	.st0{fill:#121331;}
	.st1{fill:#08a88a;}
	.st2{fill:#08a88a;}
	.st3{fill:none;stroke:#08a88a;stroke-width:12;stroke-linecap:round;stroke-linejoin:round;stroke-miterlimit:10;}
</style>
<g>
	<g>
		<path class="st1" d="M170.83,343.47c-3.2,0-5.85-2.52-5.99-5.75c-0.1-2.42,0.99-7.67,9.48-15.69c1.39-1.31,2.87-4.16,2.87-6.32
			c0-3.51-2.85-6.36-6.36-6.36c-3.5,0-6.36,2.85-6.36,6.36c0,3.31-2.69,6-6,6s-6-2.69-6-6c0-10.13,8.23-18.36,18.36-18.36
			c10.13,0,18.36,8.24,18.36,18.36c0,6.07-3.33,11.93-6.63,15.05c-4.54,4.29-5.58,6.75-5.75,7.26c-0.27,2.95-2.68,5.32-5.72,5.45
			C171,343.47,170.91,343.47,170.83,343.47z M176.83,337.22C176.83,337.23,176.83,337.23,176.83,337.22
			C176.83,337.23,176.83,337.23,176.83,337.22z M176.83,337.21C176.83,337.22,176.83,337.22,176.83,337.21
			C176.83,337.22,176.83,337.22,176.83,337.21z"/>
		<path class="st1" d="M170.81,363.34c-3.31,0-6.01-2.69-6.01-6s2.67-6,5.99-6h0.03c3.31,0,6,2.69,6,6S174.12,363.34,170.81,363.34z
			"/>
	</g>
	<g>
		<path class="st0" d="M245.9,163.01H95.77c-3.31,0-6-2.69-6-6s2.69-6,6-6H245.9c3.31,0,6,2.69,6,6S249.21,163.01,245.9,163.01z"/>
		<path class="st0" d="M170.78,196.11H95.77c-3.31,0-6-2.69-6-6s2.69-6,6-6h75.01c3.31,0,6,2.69,6,6S174.1,196.11,170.78,196.11z"/>
	</g>
	<g>
		<path class="st0" d="M245.9,240.71H95.77c-3.31,0-6-2.69-6-6s2.69-6,6-6H245.9c3.31,0,6,2.69,6,6S249.21,240.71,245.9,240.71z"/>
		<path class="st0" d="M170.78,273.81H95.77c-3.31,0-6-2.69-6-6s2.69-6,6-6h75.01c3.31,0,6,2.69,6,6S174.1,273.81,170.78,273.81z"/>
	</g>
	<g>
		<path class="st2" d="M372.58,356.1h-42.05c-3.31,0-6-2.69-6-6s2.69-6,6-6h42.05c3.31,0,6,2.69,6,6S375.89,356.1,372.58,356.1z"/>
		<path class="st0" d="M378.58,127.86v-0.06c0-0.07-0.01-0.14-0.01-0.22c-0.01-0.21-0.03-0.43-0.06-0.64
			c-0.02-0.13-0.03-0.25-0.06-0.38c-0.02-0.09-0.05-0.18-0.07-0.28c-0.03-0.13-0.07-0.25-0.11-0.37c-0.01-0.04-0.02-0.08-0.03-0.11
			l-21.03-59.57c-0.85-2.4-3.11-4-5.66-4s-4.81,1.6-5.66,4l-21.03,59.57c-0.01,0.04-0.02,0.08-0.03,0.11
			c-0.04,0.12-0.07,0.25-0.11,0.37c-0.02,0.09-0.05,0.18-0.07,0.28c-0.03,0.12-0.04,0.25-0.06,0.38c-0.03,0.21-0.05,0.43-0.06,0.64
			c0,0.07-0.01,0.14-0.01,0.22v0.06c0,0.03,0,0.06,0,0.09V350.1c0,3.31,2.69,6,6,6s6-2.69,6-6V133.8h30.05v216.3c0,3.31,2.69,6,6,6
			s6-2.69,6-6V127.95C378.58,127.92,378.58,127.89,378.58,127.86z M339,121.8l12.55-35.55l12.55,35.55H339z"/>
		<path class="st2" d="M372.58,356.1h-42.05c-3.31,0-6-2.69-6-6s2.69-6,6-6h42.05c3.31,0,6,2.69,6,6S375.89,356.1,372.58,356.1z"/>
		<path class="st2" d="M372.58,394.46h-42.05c-3.31,0-6-2.69-6-6V350.1c0-3.31,2.69-6,6-6s6,2.69,6,6v32.37h30.05V350.1
			c0-3.31,2.69-6,6-6s6,2.69,6,6v38.37C378.58,391.78,375.89,394.46,372.58,394.46z"/>
	</g>
	<path class="st0" d="M284.25,62.23h-50.7c0-3.31-2.69-6-6-6h-25.54V41.54c0-3.31-2.69-6-6-6h-50.34c-3.31,0-6,2.69-6,6v14.69
		h-25.55c-3.31,0-6,2.69-6,6h-50.7c-3.31,0-6,2.69-6,6v320.24c0,3.31,2.69,6,6,6h226.83c3.31,0,6-2.69,6-6V68.23
		C290.25,64.91,287.56,62.23,284.25,62.23z M151.67,47.54h38.34v8.69h-38.34V47.54z M221.55,68.23v25.36H120.12V68.23H221.55z
		 M278.25,382.46H63.42V74.23h44.7v25.36c0,3.31,2.69,6,6,6h113.43c3.31,0,6-2.69,6-6V74.23h44.7V382.46z"/>
</g>
</svg>
