<?xml version="1.0" encoding="utf-8"?>
<!-- Generator: Adobe Illustrator 25.1.0, SVG Export Plug-In . SVG Version: 6.00 Build 0)  -->
<svg version="1.1" id="Warstwa_3" xmlns="http://www.w3.org/2000/svg" xmlns:xlink="http://www.w3.org/1999/xlink" x="0px" y="0px"
	 viewBox="0 0 430 430" style="enable-background:new 0 0 430 430;" xml:space="preserve">
<style type="text/css">
	.st0{fill:#121331;}
	.st1{fill:#131432;}
	.st2{fill:#08a88a;}
	.st3{fill:none;}
</style>
<g>
	<path class="st0" d="M215,387.5c-40.2,0-78-15.7-106.5-44.1c-58.7-58.7-58.7-154.2,0-212.9c58.7-58.7,154.2-58.7,212.9,0
		c58.7,58.7,58.7,154.2,0,212.9l0,0C293,371.9,255.2,387.5,215,387.5z M215,97.5c-35.7,0-71.4,13.6-98.6,40.8
		c-54.4,54.4-54.4,142.9,0,197.3c26.4,26.4,61.4,40.9,98.6,40.9s72.3-14.5,98.6-40.9l0,0c54.4-54.4,54.4-142.9,0-197.3
		C286.4,111.1,250.7,97.5,215,97.5z"/>
	<path class="st0" d="M215,118.4c-3.1,0-5.5-2.5-5.5-5.5v-21c0-3.1,2.5-5.5,5.5-5.5s5.5,2.5,5.5,5.5v21
		C220.5,116,218.1,118.4,215,118.4z"/>
	<path class="st0" d="M127.3,154.8c-1.4,0-2.8-0.5-3.9-1.6l-14.8-14.8c-2.2-2.2-2.2-5.7,0-7.8s5.7-2.2,7.8,0l14.8,14.8
		c2.2,2.2,2.2,5.7,0,7.8C130.1,154.2,128.7,154.8,127.3,154.8z"/>
	<path class="st0" d="M91,242.5H70c-3.1,0-5.5-2.5-5.5-5.5s2.5-5.5,5.5-5.5h21c3.1,0,5.5,2.5,5.5,5.5S94,242.5,91,242.5z"/>
	<path class="st0" d="M112.4,345c-1.4,0-2.8-0.5-3.9-1.6c-2.2-2.2-2.2-5.7,0-7.8l14.8-14.8c2.2-2.2,5.7-2.2,7.8,0s2.2,5.7,0,7.8
		l-14.8,14.8C115.3,344.5,113.9,345,112.4,345z"/>
	<path class="st1" d="M215,381.9c-2.8,0-5-2.3-5-5v-13.3c0-2.8,2.3-5,5-5s5,2.3,5,5v13.3C220,379.6,217.8,381.9,215,381.9z"/>
	<path class="st0" d="M317.5,345c-1.4,0-2.8-0.5-3.9-1.6l-14.8-14.8c-2.2-2.2-2.2-5.7,0-7.8c2.2-2.2,5.7-2.2,7.8,0l14.8,14.8
		c2.2,2.2,2.2,5.7,0,7.8C320.4,344.5,319,345,317.5,345z"/>
	<path class="st0" d="M360,242.5h-21c-3.1,0-5.5-2.5-5.5-5.5s2.5-5.5,5.5-5.5h21c3.1,0,5.5,2.5,5.5,5.5S363.1,242.5,360,242.5z"/>
	<path class="st0" d="M302.7,154.8c-1.4,0-2.8-0.5-3.9-1.6c-2.2-2.2-2.2-5.7,0-7.8l14.8-14.8c2.2-2.2,5.7-2.2,7.8,0
		c2.2,2.2,2.2,5.7,0,7.8l-14.8,14.8C305.5,154.2,304.1,154.8,302.7,154.8z"/>
	<path class="st2" d="M215,259.1c-5.9,0-11.6-2.5-15.6-6.9c-4-4.4-5.9-10.3-5.3-16.1c0-0.1,0-0.2,0-0.3l15.4-96.9
		c0.4-2.7,2.7-4.7,5.5-4.7s5,2,5.5,4.7l15.4,96.9c0,0.1,0,0.2,0,0.3c0.6,5.9-1.4,11.8-5.3,16.1C226.6,256.6,220.9,259.1,215,259.1z
		 M205.1,237.3c-0.2,2.8,0.7,5.4,2.5,7.5c1.9,2.1,4.5,3.3,7.3,3.3s5.4-1.2,7.3-3.3c1.9-2.1,2.8-4.7,2.5-7.5l-9.9-62.3L205.1,237.3z"
		/>
	<path class="st0" d="M261.5,74.8h-92.3c-3.1,0-5.5-2.5-5.5-5.5V48c0-3.1,2.5-5.5,5.5-5.5h92.3c3.1,0,5.5,2.5,5.5,5.5v21.3
		C267.1,72.3,264.6,74.8,261.5,74.8z M174.8,63.8H256V53.5h-81.2V63.8z"/>
	<path class="st0" d="M238.3,97.5h-45.8c-3.1,0-5.5-2.5-5.5-5.5V69.3c0-3.1,2.5-5.5,5.5-5.5h45.8c3.1,0,5.5,2.5,5.5,5.5v22.6
		C243.8,95,241.3,97.5,238.3,97.5z M198,86.4h34.7V74.8H198V86.4z"/>
	<path class="st0" d="M317.7,139.8c-1.4,0-2.8-0.5-3.9-1.6c-2.2-2.2-2.2-5.7,0-7.8l8.7-8.7c2.2-2.2,5.7-2.2,7.8,0
		c2.2,2.2,2.2,5.7,0,7.8l-8.7,8.7C320.5,139.3,319.1,139.8,317.7,139.8z"/>
	<path class="st0" d="M330.7,145c-1.4,0-2.8-0.5-3.9-1.6l-18.7-18.7c-1-1-1.6-2.4-1.6-3.9s0.6-2.9,1.6-3.9l8.6-8.6
		c2.2-2.2,5.7-2.2,7.8,0l18.7,18.7c1,1,1.6,2.5,1.6,3.9c0,1.5-0.6,2.9-1.6,3.9l-8.6,8.6C333.6,144.4,332.1,145,330.7,145z"/>
	<path class="st3" d="M339.3,130.8l-18.7-18.7l-8.6,8.6l18.7,18.7L339.3,130.8z"/>
</g>
</svg>
