<?xml version="1.0" encoding="utf-8"?>
<!-- Generator: Adobe Illustrator 24.1.2, SVG Export Plug-In . SVG Version: 6.00 Build 0)  -->
<svg version="1.1" id="Warstwa_3" xmlns="http://www.w3.org/2000/svg" xmlns:xlink="http://www.w3.org/1999/xlink" x="0px" y="0px"
	 viewBox="0 0 430 430" style="enable-background:new 0 0 430 430;" xml:space="preserve">
<style type="text/css">
	.st0{fill:#08a88a;}
	.st1{fill:#121331;}
	.st2{fill:none;stroke:#08a88a;stroke-width:12;stroke-linecap:round;stroke-linejoin:round;stroke-miterlimit:10;}
	.st3{fill:none;stroke:#121331;stroke-width:12;stroke-linecap:round;stroke-linejoin:round;stroke-miterlimit:10;}
	.st4{fill:#08a88a;}
	.st5{fill:#FFFFFF;stroke:#08a88a;stroke-width:12;stroke-linecap:round;stroke-linejoin:round;stroke-miterlimit:10;}
</style>
<g>
	<g>
		<g>
			<path class="st0" d="M195.83,308.29h-0.14c-4.97,0-9-4.03-9-9s4.03-9,9-9h0.14c4.97,0,9,4.03,9,9S200.8,308.29,195.83,308.29z"/>
			<path class="st0" d="M255.22,308.29h-0.14c-4.97,0-9-4.03-9-9s4.03-9,9-9h0.14c4.97,0,9,4.03,9,9S260.19,308.29,255.22,308.29z"
				/>
			<path class="st0" d="M225.52,308.29h-0.14c-4.97,0-9-4.03-9-9s4.03-9,9-9h0.14c4.97,0,9,4.03,9,9S230.49,308.29,225.52,308.29z"
				/>
			<path class="st0" d="M284.91,308.29h-0.14c-4.97,0-9-4.03-9-9s4.03-9,9-9h0.14c4.97,0,9,4.03,9,9S289.88,308.29,284.91,308.29z"
				/>
			<path class="st0" d="M166.13,308.29H166c-4.97,0-9-4.03-9-9s4.03-9,9-9h0.14c4.97,0,9,4.03,9,9S171.1,308.29,166.13,308.29z"/>
		</g>
		<g>
			<g>
				<path class="st0" d="M181.98,336.15h-0.14c-4.97,0-9-4.03-9-9s4.03-9,9-9h0.14c4.97,0,9,4.03,9,9S186.95,336.15,181.98,336.15z"
					/>
				<path class="st0" d="M241.36,336.15h-0.14c-4.97,0-9-4.03-9-9s4.03-9,9-9h0.14c4.97,0,9,4.03,9,9S246.34,336.15,241.36,336.15z"
					/>
				<path class="st0" d="M211.67,336.15h-0.14c-4.97,0-9-4.03-9-9s4.03-9,9-9h0.14c4.97,0,9,4.03,9,9S216.64,336.15,211.67,336.15z"
					/>
				<path class="st0" d="M271.06,336.15h-0.14c-4.97,0-9-4.03-9-9s4.03-9,9-9h0.14c4.97,0,9,4.03,9,9S276.03,336.15,271.06,336.15z"
					/>
				<path class="st0" d="M152.28,336.15h-0.14c-4.97,0-9-4.03-9-9s4.03-9,9-9h0.14c4.97,0,9,4.03,9,9S157.25,336.15,152.28,336.15z"
					/>
			</g>
			<path class="st0" d="M300.13,336.15h-0.14c-4.97,0-9-4.03-9-9s4.03-9,9-9h0.14c4.97,0,9,4.03,9,9S305.1,336.15,300.13,336.15z"/>
		</g>
		<g>
			<path class="st0" d="M225.52,364.02h-0.14c-4.97,0-9-4.03-9-9s4.03-9,9-9h0.14c4.97,0,9,4.03,9,9S230.49,364.02,225.52,364.02z"
				/>
			<path class="st0" d="M255.22,364.02h-0.14c-4.97,0-9-4.03-9-9s4.03-9,9-9h0.14c4.97,0,9,4.03,9,9S260.19,364.02,255.22,364.02z"
				/>
			<path class="st0" d="M195.83,364.02h-0.14c-4.97,0-9-4.03-9-9s4.03-9,9-9h0.14c4.97,0,9,4.03,9,9S200.8,364.02,195.83,364.02z"/>
		</g>
	</g>
	<path class="st0" d="M226.14,251.74c-7.67,0-33.51-0.98-43.72-13.61c-1.23-1.52-1.64-3.55-1.1-5.43l14.1-49.23
		c0.91-3.19,4.23-5.03,7.42-4.12c3.19,0.91,5.03,4.23,4.12,7.42l-13.11,45.76c5.85,4.33,18.41,7.2,32.29,7.2
		c13.89,0,26.44-2.88,32.29-7.2l-13.11-45.76c-0.91-3.19,0.93-6.51,4.12-7.42c3.18-0.91,6.51,0.93,7.42,4.12l14.1,49.23
		c0.54,1.88,0.13,3.9-1.1,5.43C259.64,250.76,233.81,251.74,226.14,251.74z"/>
	<path class="st1" d="M370.42,146.34c-3.31,0-6,2.69-6,6v5.6h-10.5v-1.98c0-10.59-8.62-19.21-19.21-19.21h-21.93V95.48
		c0-0.07-0.01-0.13-0.01-0.2c0-0.07-0.01-0.14-0.01-0.21c-0.02-0.25-0.05-0.51-0.09-0.75c0,0,0-0.01,0-0.01
		c-0.05-0.25-0.12-0.5-0.21-0.75c-0.02-0.06-0.04-0.12-0.07-0.18c-0.09-0.23-0.18-0.46-0.3-0.68c-0.01-0.01-0.01-0.02-0.02-0.03
		c-0.12-0.23-0.26-0.45-0.42-0.66c-0.04-0.05-0.07-0.1-0.11-0.15c-0.16-0.21-0.33-0.42-0.52-0.61l-23.72-23.72L263.59,43.8
		c0,0-0.01-0.01-0.01-0.01c-0.19-0.18-0.39-0.35-0.59-0.51c-0.06-0.04-0.11-0.08-0.17-0.12c-0.21-0.15-0.43-0.29-0.65-0.41
		c-0.02-0.01-0.04-0.02-0.05-0.03c-0.21-0.11-0.43-0.21-0.66-0.29c-0.06-0.02-0.13-0.05-0.2-0.07c-0.24-0.08-0.49-0.15-0.74-0.2
		c-0.01,0-0.02,0-0.02,0c-0.24-0.05-0.49-0.08-0.74-0.09c-0.07,0-0.14-0.01-0.21-0.01c-0.07,0-0.13-0.01-0.2-0.01H145.48
		c-3.31,0-6,2.69-6,6v88.71h-21.93c-10.59,0-19.21,8.62-19.21,19.21v1.98H83.93c-2.54,0-4.81,1.6-5.66,4l-24.36,69.01
		c-1.1,3.13,0.54,6.55,3.66,7.66c0.66,0.23,1.33,0.34,2,0.34c2.47,0,4.79-1.54,5.66-4l22.94-65.01h10.17v1.98
		c0,8.01,4.94,14.89,11.92,17.76v82.67c0,0.03,0,0.06,0,0.1c0,0.09,0.01,0.19,0.01,0.28c0.01,0.12,0.02,0.24,0.03,0.36
		c0,0.03,0,0.07,0.01,0.1l9.57,68.15c2.79,19.86,17.85,36.05,37.48,40.27c19.65,4.23,44.29,6.34,68.91,6.34
		c24.54,0,49.07-2.1,68.62-6.31c19.61-4.22,34.66-20.4,37.45-40.26l9.58-68.2c0-0.03,0-0.07,0.01-0.1c0.01-0.12,0.02-0.24,0.03-0.36
		c0.01-0.09,0.01-0.19,0.01-0.28c0-0.03,0-0.06,0-0.1v-82.67c6.99-2.88,11.92-9.75,11.92-17.76v-1.98h10.5v5.6c0,3.31,2.69,6,6,6
		s6-2.69,6-6v-23.2C376.42,149.02,373.74,146.34,370.42,146.34z M265.35,62.52L278.82,76l13.48,13.48h-26.96V62.52z M151.48,54.04
		h101.86v41.44c0,3.31,2.69,6,6,6h41.44v35.27H151.48V54.04z M110.35,155.96c0-3.97,3.23-7.21,7.21-7.21h217.16
		c3.97,0,7.21,3.23,7.21,7.21v15.96c0,3.97-3.23,7.21-7.21,7.21H117.56c-3.97,0-7.21-3.23-7.21-7.21V155.96z M320.48,339.71
		c-2.09,14.9-13.38,27.04-28.09,30.2c-37.72,8.11-94.68,8.1-132.48-0.04c-14.73-3.17-26.03-15.31-28.12-30.21l-8.61-61.32H329.1
		L320.48,339.71z M330,266.35H122.27v-75.22H330V266.35z"/>
</g>
</svg>
